HIERARCHY
ROOT Hips
{
	OFFSET -0.491553 -0.224790 -0.236348
	CHANNELS 6 Xposition Yposition Zposition Zrotation Yrotation Xrotation 
	JOINT LHipJoint
	{
		OFFSET -0.227843 5.451948 3.548710
		CHANNELS 3 Zrotation Yrotation Xrotation
		JOINT LeftUpLeg
		{
			OFFSET 2.430820 4.328324 10.244855
			CHANNELS 3 Zrotation Yrotation Xrotation
			JOINT LeftLeg
			{
				OFFSET 5.143519 6.400506 3.966740
				CHANNELS 3 Zrotation Yrotation Xrotation
				JOINT LeftFoot
				{
					OFFSET 9.857249 3.115188 4.895071
					CHANNELS 3 Zrotation Yrotation Xrotation
					JOINT LeftToeBase
					{
						OFFSET -0.174365 3.916821 5.822150
						CHANNELS 3 Zrotation Yrotation Xrotation
						End Site
						{
							OFFSET 0.000000 0.000000 0.000000
						}
					}
				}
			}
		}
	}
	JOINT RHipJoint
	{
		OFFSET 6.996740 5.293785 6.716893
		CHANNELS 3 Zrotation Yrotation Xrotation
		JOINT RightUpLeg
		{
			OFFSET 4.391736 4.698749 4.973631
			CHANNELS 3 Zrotation Yrotation Xrotation
			JOINT RightLeg
			{
				OFFSET 4.983428 4.636428 4.604072
				CHANNELS 3 Zrotation Yrotation Xrotation
				JOINT RightFoot
				{
					OFFSET 3.925748 4.395162 4.895493
					CHANNELS 3 Zrotation Yrotation Xrotation
					JOINT RightToeBase
					{
						OFFSET 5.179639 4.885428 6.600905
						CHANNELS 3 Zrotation Yrotation Xrotation
						End Site
						{
							OFFSET 0.000000 0.000000 0.000000
						}
					}
				}
			}
		}
	}
	JOINT LowerBack
	{
		OFFSET 6.104880 6.231935 6.386693
		CHANNELS 3 Zrotation Yrotation Xrotation
		JOINT Spine
		{
			OFFSET 7.030995 6.901283 6.911144
			CHANNELS 3 Zrotation Yrotation Xrotation
			JOINT Spine1
			{
				OFFSET 6.941543 6.985343 6.733010
				CHANNELS 3 Zrotation Yrotation Xrotation
				JOINT Neck
				{
					OFFSET 6.628279 6.723731 6.635330
					CHANNELS 3 Zrotation Yrotation Xrotation
					JOINT Neck1
					{
						OFFSET 7.252057 7.298989 6.914113
						CHANNELS 3 Zrotation Yrotation Xrotation
						JOINT Head
						{
							OFFSET 7.757048 7.553379 7.467776
							CHANNELS 3 Zrotation Yrotation Xrotation
							End Site
							{
								OFFSET 0.000000 0.000000 0.000000
							}
						}
					}
				}
				JOINT LeftShoulder
				{
					OFFSET 6.768567 7.474796 6.453543
					CHANNELS 3 Zrotation Yrotation Xrotation
					JOINT LeftArm
					{
						OFFSET 6.301360 6.558362 6.914907
						CHANNELS 3 Zrotation Yrotation Xrotation
						JOINT LeftForeArm
						{
							OFFSET 6.471958 6.427226 6.820474
							CHANNELS 3 Zrotation Yrotation Xrotation
							JOINT LeftHand
							{
								OFFSET 6.244887 6.422156 6.391797
								CHANNELS 3 Zrotation Yrotation Xrotation
								JOINT LeftFingerBase
								{
									OFFSET 6.180916 5.881076 5.994465
									CHANNELS 3 Zrotation Yrotation Xrotation
									JOINT LeftHandIndex1
									{
										OFFSET 6.064975 6.267753 6.353149
										CHANNELS 3 Zrotation Yrotation Xrotation
										End Site
										{
											OFFSET 0.000000 0.000000 0.000000
										}
									}
								}
								JOINT LThumb
								{
									OFFSET 6.220228 6.120415 6.108636
									CHANNELS 3 Zrotation Yrotation Xrotation
									End Site
									{
										OFFSET 0.000000 0.000000 0.000000
									}
								}
							}
						}
					}
				}
				JOINT RightShoulder
				{
					OFFSET 6.033860 6.102162 6.081181
					CHANNELS 3 Zrotation Yrotation Xrotation
					JOINT RightArm
					{
						OFFSET 6.108163 6.625473 6.155488
						CHANNELS 3 Zrotation Yrotation Xrotation
						JOINT RightForeArm
						{
							OFFSET 5.931014 5.809982 6.149367
							CHANNELS 3 Zrotation Yrotation Xrotation
							JOINT RightHand
							{
								OFFSET 6.097213 6.145871 5.704690
								CHANNELS 3 Zrotation Yrotation Xrotation
								JOINT RightFingerBase
								{
									OFFSET 5.568552 5.895765 6.044122
									CHANNELS 3 Zrotation Yrotation Xrotation
									JOINT RightHandIndex1
									{
										OFFSET 5.976165 5.969492 5.972416
										CHANNELS 3 Zrotation Yrotation Xrotation
										End Site
										{
											OFFSET 0.000000 0.000000 0.000000
										}
									}
								}
								JOINT RThumb
								{
									OFFSET 5.937528 5.736197 6.468971
									CHANNELS 3 Zrotation Yrotation Xrotation
									End Site
									{
										OFFSET 5.979670 5.955458 5.827167
									}
								}
							}
						}
					}
				}
			}
		}
	}
}
MOTION
Frames: 7
Frame Time: 0.008333
3.116209 17.764629 2.334277 -0.508618 -0.885262 6.820720 -0.064996 1.502607 0.962907 -17.068213 -5.198040 -17.493086 1.537135 9.475957 29.968964 2.436901 1.022500 7.496761 0.348402 -2.028407 -5.775075 -1.189562 -1.663273 0.555800 20.030352 7.775215 -18.318569 -2.801482 -7.859222 35.061882 3.275658 0.047121 7.636003 -0.462938 2.459560 -3.260013 1.373126 0.347120 1.054358 1.788843 4.660576 -2.097221 1.399269 0.407510 -2.863026 -2.155149 -1.289357 -13.202551 3.895174 -2.766964 13.420177 1.229703 -1.339260 7.825232 -1.047906 0.383645 1.031080 -84.815964 3.043660 20.381632 24.310354 -23.804392 -4.470596 -0.506850 -0.375472 2.408271 19.637360 4.545079 1.966700 -7.125000 0.000000 0.000000 -8.303216 34.961487 -0.077588 1.775147 0.211823 -0.539583 81.201546 -4.526847 11.189125 -14.934395 24.416750 -4.987271 0.649842 -0.082910 3.809103 -18.986221 -1.705015 0.063855 7.125000 0.000000 0.000000 6.448662 -32.811596 -1.436033
3.116245 17.764631 2.334386 -0.508608 -0.885254 6.820708 -0.064976 1.503042 0.962915 -17.068174 -5.197947 -17.493097 1.537125 9.475880 29.968506 2.429385 1.022096 7.496112 0.348383 -2.028512 -5.775024 -1.189634 -1.663344 0.555712 20.030073 7.775158 -18.318401 -2.801450 -7.864438 35.035595 3.263181 0.008944 7.609447 -0.462963 2.455142 -3.260011 1.376744 0.347172 1.054412 1.788864 4.658729 -2.096861 1.399314 0.407834 -2.862965 -2.157228 -1.295047 -13.202518 3.895167 -2.766978 13.420268 1.229743 -1.339273 7.825237 -1.047866 0.383690 1.031803 -84.816017 3.043472 20.381409 24.275002 -23.804628 -4.470857 -0.506868 -0.375510 2.407679 19.636934 4.544511 1.966320 -7.125000 0.000000 0.000000 -8.304413 34.960640 -0.078691 1.775014 0.211704 -0.539619 81.201294 -4.527101 11.188621 -14.934541 24.416571 -4.987409 0.649834 -0.082909 3.809090 -18.986198 -1.705007 0.063837 7.125000 0.000000 0.000000 6.448287 -32.811707 -1.436668
3.116250 17.764610 2.333697 -0.508869 -0.885525 6.820305 -0.065293 1.475227 0.962626 -17.069132 -5.198857 -17.494860 1.536676 9.474892 29.965090 2.357027 1.018758 7.491961 0.348024 -2.030264 -5.779908 -1.191627 -1.664284 0.554516 20.026064 7.772106 -18.323061 -2.802635 -8.045824 34.501434 3.124204 -0.426542 7.110395 -0.463532 2.249327 -3.268162 1.216780 0.345715 1.052129 1.787991 4.470976 -2.266287 1.397900 0.291084 -2.865549 -2.399342 -1.506201 -13.205282 3.894264 -2.769027 13.417650 1.228606 -1.339907 7.824026 -1.049003 0.382567 0.997109 -84.818390 3.039026 20.375267 23.821848 -23.807266 -4.473596 -0.507021 -0.375886 2.402370 19.634239 4.541630 1.964009 -7.125000 0.000000 0.000000 -8.311114 34.956062 -0.084713 1.774386 0.210988 -0.539749 81.200325 -4.528011 11.185667 -14.935532 24.415758 -4.988484 0.649702 -0.083122 3.805800 -18.995800 -1.709515 0.054146 7.125000 0.000000 0.000000 6.440431 -32.815651 -1.448551
3.116389 17.764639 2.334993 -0.508486 -0.884493 6.821267 -0.064401 1.520534 0.963383 -17.067211 -5.196769 -17.491385 1.537833 9.476264 29.969606 2.445926 1.022282 7.496346 0.348520 -2.028344 -5.773412 -1.189703 -1.663461 0.555654 20.029406 7.775269 -18.317795 -2.801397 -7.891093 35.145027 3.280057 0.057155 7.736937 -0.462982 2.453211 -3.260558 1.434323 0.347620 1.055167 1.789246 4.676194 -2.045055 1.399789 0.425762 -2.862653 -2.162442 -1.308341 -13.201948 3.895879 -2.765723 13.422162 1.231018 -1.338140 7.826831 -1.046316 0.384874 1.065079 -84.813713 3.047569 20.388111 24.684231 -23.801569 -4.467834 -0.506686 -0.375126 2.412966 19.639238 4.549461 1.969215 -7.125000 0.000000 0.000000 -8.301741 34.966679 -0.070570 1.775796 0.211648 -0.539478 81.202110 -4.525821 11.189079 -14.933927 24.416779 -4.988269 0.649726 -0.083131 3.805501 -18.996725 -1.709899 0.053564 7.125000 0.000000 0.000000 6.442722 -32.814194 -1.443090
3.116562 17.764660 2.335922 -0.508464 -0.884418 6.821251 -0.064375 1.517088 0.963486 -17.067163 -5.196605 -17.490417 1.538226 9.476680 29.970913 2.466149 1.023503 7.496484 0.348585 -2.028078 -5.771112 -1.189285 -1.663324 0.555799 20.029404 7.775538 -18.317373 -2.801576 -7.937448 35.069496 3.260770 0.048834 7.801774 -0.462944 2.464638 -3.260356 1.438286 0.347422 1.054884 1.789032 4.611336 -2.085879 1.399467 0.401277 -2.862914 -2.181382 -1.324849 -13.202179 3.895762 -2.766439 13.421242 1.230587 -1.338462 7.825981 -1.047193 0.384140 1.045532 -84.814964 3.045181 20.384478 24.419693 -23.803114 -4.469521 -0.506780 -0.375352 2.409785 19.637564 4.547159 1.967131 -7.125000 0.000000 0.000000 -8.308786 34.961418 -0.077629 1.774830 0.210785 -0.539645 81.200882 -4.527235 11.185244 -14.935142 24.415874 -4.988607 0.649747 -0.083068 3.806344 -18.993776 -1.708755 0.056059 7.125000 0.000000 0.000000 6.442907 -32.813866 -1.443881
3.116541 17.764652 2.335566 -0.508592 -0.884636 6.821039 -0.064556 1.507061 0.963355 -17.067476 -5.196877 -17.490898 1.538092 9.476512 29.970350 2.455903 1.023047 7.495966 0.348572 -2.028059 -5.770787 -1.189222 -1.663305 0.555882 20.029819 7.775924 -18.316757 -2.801439 -7.921680 35.120464 3.268862 0.063008 7.818966 -0.462940 2.464272 -3.260295 1.439030 0.347440 1.054924 1.789028 4.611018 -2.085196 1.399477 0.403367 -2.862836 -2.176598 -1.321975 -13.202150 3.895720 -2.766591 13.421011 1.230441 -1.338580 7.825782 -1.047382 0.384012 1.041559 -84.815254 3.044567 20.383514 24.359230 -23.803459 -4.469866 -0.506797 -0.375383 2.409447 19.637434 4.547097 1.967147 -7.125000 0.000000 0.000000 -8.308386 34.961956 -0.076698 1.774960 0.210884 -0.539598 81.201187 -4.526813 11.186105 -14.934658 24.416212 -4.988307 0.649787 -0.083016 3.807114 -18.991318 -1.707685 0.058388 7.125000 0.000000 0.000000 6.444384 -32.813152 -1.442814
3.116519 17.764648 2.335401 -0.508663 -0.884318 6.821284 -0.064326 1.515810 0.963466 -17.067205 -5.196583 -17.489941 1.538408 9.476758 29.971231 2.480984 1.023390 7.496957 0.348696 -2.027325 -5.767629 -1.188435 -1.662970 0.556330 20.031326 7.777153 -18.314827 -2.800952 -7.846142 35.369148 3.326876 0.233162 8.072163 -0.462718 2.543954 -3.128013 1.484438 0.347892 1.055649 1.789286 4.651139 -2.038494 1.399874 0.437465 -2.862085 -2.125123 -1.281195 -13.201922 3.895814 -2.766272 13.421430 1.230650 -1.338412 7.826385 -1.046763 0.384624 1.062737 -84.814018 3.046811 20.387201 24.694664 -23.801897 -4.468248 -0.506688 -0.375058 2.412888 19.639174 4.550258 1.969420 -7.125000 0.000000 0.000000 -8.304279 34.966721 -0.070261 1.775761 0.211418 -0.539370 81.202728 -4.524907 11.189162 -14.933203 24.417213 -4.987600 0.649845 -0.082953 3.808042 -18.988342 -1.706497 0.061135 7.125000 0.000000 0.000000 6.446414 -32.812134 -1.440808
